<svg width="123" height="42" viewBox="0 0 123 42" fill="none" xmlns="http://www.w3.org/2000/svg">
<path d="M13.5 41.8C18.25 41.8 21.85 39.6 24 35.85L23.15 35.2C21.25 37.55 18.8 38.9 15.3 38.9C9.95 38.9 6.05 35.4 6.05 27.2C6.05 19.45 9.15 15.55 12.95 15.55C16.5 15.55 18.7 18.25 18.7 22.6C18.7 25.05 18.1 26 16.15 26H2.65V27.65H23.7C23.95 26.8 24.05 25.85 24.05 24.65C24.05 18.6 20.1 13.9 13.15 13.9C6.25 13.9 0.15 19.1 0.15 27.85C0.15 37 5.7 41.8 13.5 41.8ZM28.4227 28.75H41.9727V25.8H28.4227V28.75ZM52.3414 16.6H61.9414V14.65H52.3414V16.6ZM56.2414 41.8C59.2914 41.8 61.4914 40.7 62.8914 38.65L62.1414 37.8C60.7914 38.7 59.8914 39.15 58.4914 39.15C56.3414 39.15 55.1414 37.9 55.1414 34.95V15.45L55.2914 6.75H51.5914L49.6414 15.2L50.5914 14.55L44.8914 15.05V16.6H49.4914V29.85C49.4914 31.8 49.4414 33 49.4414 34.75C49.4414 39.6 51.6914 41.8 56.2414 41.8Z" fill="#7774E7"/>
<path d="M78.4332 41.8C83.5332 41.8 86.6832 39.8 88.9832 35.9L88.1332 35.25C86.1332 37.65 83.6332 38.9 80.6832 38.9C75.0832 38.9 71.3332 34.75 71.3332 27.5C71.3332 20 74.9832 15.55 79.8832 15.55C81.6832 15.55 83.2832 16 85.2832 17.25L82.2832 15.1L83.2832 19.7C83.5332 22.2 84.7332 23.05 86.3832 23.05C87.6832 23.05 88.5832 22.4 88.9832 20.95C88.0332 16.8 84.1832 13.9 79.2832 13.9C71.8832 13.9 65.4332 18.95 65.4332 28.2C65.4332 36.85 70.9832 41.8 78.4332 41.8ZM91.991 41H105.091V39.55L99.891 39.05H97.341L91.991 39.55V41ZM95.791 41H101.741C101.641 38.55 101.591 32.85 101.591 29.4V20.2L101.491 19.55V8.7L101.641 0.799999L100.891 0.349999L91.841 2.1V3.45L95.941 3.7V29.4C95.941 32.85 95.891 38.55 95.791 41ZM109.241 41H122.341V39.55L116.991 39.05H114.491L109.241 39.55V41ZM112.891 41H118.891C118.741 38.55 118.691 32.95 118.691 29.4V23.45C118.691 16.65 115.841 13.9 111.241 13.9C107.441 13.9 104.191 15.75 100.691 20.1H99.041L100.291 22.05C103.591 18.3 106.541 16.95 108.841 16.95C111.441 16.95 113.091 18.55 113.091 23.1V29.4C113.091 32.95 113.041 38.55 112.891 41Z" fill="#E774C7"/>
</svg>
