<svg width="90" height="90" viewBox="0 0 108 108" fill="none" xmlns="http://www.w3.org/2000/svg">
<g filter="url(#filter0_d_46_2636)">
<rect x="2" width="100" height="100" rx="30" fill="#F119B5"/>
<path d="M45.7562 37.5001C45.7562 35.8442 46.4141 34.256 47.585 33.0851C48.7559 31.9142 50.3441 31.2563 52 31.2563C53.6559 31.2563 55.2441 31.9142 56.415 33.0851C57.5859 34.256 58.2437 35.8442 58.2437 37.5001C58.2437 39.156 57.5859 40.7442 56.415 41.9151C55.2441 43.086 53.6559 43.7438 52 43.7438C50.3441 43.7438 48.7559 43.086 47.585 41.9151C46.4141 40.7442 45.7562 39.156 45.7562 37.5001ZM52 34.3813C51.5904 34.3813 51.1849 34.462 50.8065 34.6187C50.4281 34.7755 50.0843 35.0052 49.7947 35.2948C49.5051 35.5844 49.2754 35.9282 49.1187 36.3066C48.9619 36.685 48.8813 37.0905 48.8813 37.5001C48.8813 37.9097 48.9619 38.3152 49.1187 38.6936C49.2754 39.072 49.5051 39.4158 49.7947 39.7054C50.0843 39.995 50.4281 40.2247 50.8065 40.3814C51.1849 40.5382 51.5904 40.6188 52 40.6188C52.8271 40.6188 53.6204 40.2903 54.2053 39.7054C54.7902 39.1205 55.1187 38.3272 55.1187 37.5001C55.1187 36.673 54.7902 35.8797 54.2053 35.2948C53.6204 34.7099 52.8271 34.3813 52 34.3813ZM61.375 39.0626C61.375 38.447 61.4962 37.8375 61.7318 37.2688C61.9674 36.7001 62.3127 36.1833 62.7479 35.748C63.1832 35.3128 63.7 34.9675 64.2687 34.7319C64.8374 34.4963 65.4469 34.3751 66.0625 34.3751C66.6781 34.3751 67.2876 34.4963 67.8563 34.7319C68.425 34.9675 68.9418 35.3128 69.3771 35.748C69.8123 36.1833 70.1576 36.7001 70.3932 37.2688C70.6288 37.8375 70.75 38.447 70.75 39.0626C70.75 40.3058 70.2561 41.4981 69.3771 42.3772C68.498 43.2562 67.3057 43.7501 66.0625 43.7501C64.8193 43.7501 63.627 43.2562 62.7479 42.3772C61.8689 41.4981 61.375 40.3058 61.375 39.0626ZM66.0625 37.5001C65.6481 37.5001 65.2507 37.6647 64.9576 37.9577C64.6646 38.2508 64.5 38.6482 64.5 39.0626C64.5 39.477 64.6646 39.8744 64.9576 40.1675C65.2507 40.4605 65.6481 40.6251 66.0625 40.6251C66.4769 40.6251 66.8743 40.4605 67.1674 40.1675C67.4604 39.8744 67.625 39.477 67.625 39.0626C67.625 38.6482 67.4604 38.2508 67.1674 37.9577C66.8743 37.6647 66.4769 37.5001 66.0625 37.5001ZM37.9375 34.3751C36.6943 34.3751 35.502 34.869 34.6229 35.748C33.7439 36.6271 33.25 37.8194 33.25 39.0626C33.25 40.3058 33.7439 41.4981 34.6229 42.3772C35.502 43.2562 36.6943 43.7501 37.9375 43.7501C39.1807 43.7501 40.373 43.2562 41.2521 42.3772C42.1311 41.4981 42.625 40.3058 42.625 39.0626C42.625 37.8194 42.1311 36.6271 41.2521 35.748C40.373 34.869 39.1807 34.3751 37.9375 34.3751ZM36.375 39.0626C36.375 38.6482 36.5396 38.2508 36.8326 37.9577C37.1257 37.6647 37.5231 37.5001 37.9375 37.5001C38.3519 37.5001 38.7493 37.6647 39.0424 37.9577C39.3354 38.2508 39.5 38.6482 39.5 39.0626C39.5 39.477 39.3354 39.8744 39.0424 40.1675C38.7493 40.4605 38.3519 40.6251 37.9375 40.6251C37.5231 40.6251 37.1257 40.4605 36.8326 40.1675C36.5396 39.8744 36.375 39.477 36.375 39.0626ZM40.3375 46.8751C39.7875 47.8246 39.4986 48.9028 39.5 50.0001H33.25V57.8126C33.2497 58.5899 33.4428 59.3551 33.8118 60.0392C34.1807 60.7234 34.7141 61.305 35.3637 61.7318C36.0134 62.1586 36.759 62.4172 37.5334 62.4842C38.3078 62.5512 39.0867 62.4246 39.8 62.1157C40.0313 63.1501 40.3938 64.1376 40.8625 65.0595C39.6765 65.5384 38.391 65.7187 37.1189 65.5847C35.8469 65.4507 34.6272 65.0064 33.567 64.2908C32.5068 63.5753 31.6385 62.6104 31.0384 61.4808C30.4382 60.3513 30.1246 59.0917 30.125 57.8126V50.0001C30.125 49.1713 30.4542 48.3764 31.0403 47.7904C31.6263 47.2043 32.4212 46.8751 33.25 46.8751H40.3375ZM63.1375 65.0595C64.3235 65.5384 65.609 65.7187 66.8811 65.5847C68.1531 65.4507 69.3728 65.0064 70.433 64.2908C71.4932 63.5753 72.3615 62.6104 72.9616 61.4808C73.5618 60.3513 73.8754 59.0917 73.875 57.8126V50.0001C73.875 49.1713 73.5458 48.3764 72.9597 47.7904C72.3737 47.2043 71.5788 46.8751 70.75 46.8751H63.6625C64.1938 47.7938 64.5 48.8595 64.5 50.0001H70.75V57.8126C70.7503 58.5899 70.5572 59.3551 70.1882 60.0392C69.8193 60.7234 69.2859 61.305 68.6363 61.7318C67.9866 62.1586 67.2411 62.4172 66.4666 62.4842C65.6922 62.5512 64.9133 62.4246 64.2 62.1157C63.9656 63.1501 63.6063 64.1376 63.1375 65.0595ZM45.75 46.872C44.9212 46.872 44.1263 47.2012 43.5403 47.7873C42.9542 48.3733 42.625 49.1682 42.625 49.997V59.3751C42.625 61.8615 43.6127 64.2461 45.3709 66.0042C47.129 67.7624 49.5136 68.7501 52 68.7501C54.4864 68.7501 56.871 67.7624 58.6291 66.0042C60.3873 64.2461 61.375 61.8615 61.375 59.3751V50.0001C61.375 49.1713 61.0458 48.3764 60.4597 47.7904C59.8737 47.2043 59.0788 46.8751 58.25 46.8751H45.75V46.872ZM45.75 49.997H58.25V59.3751C58.25 61.0327 57.5915 62.6224 56.4194 63.7945C55.2473 64.9666 53.6576 65.6251 52 65.6251C50.3424 65.6251 48.7527 64.9666 47.5806 63.7945C46.4085 62.6224 45.75 61.0327 45.75 59.3751V50.0001V49.997Z" fill="white"/>
</g>
<defs>
<filter id="filter0_d_46_2636" x="0" y="0" width="108" height="108" filterUnits="userSpaceOnUse" color-interpolation-filters="sRGB">
<feFlood flood-opacity="0" result="BackgroundImageFix"/>
<feColorMatrix in="SourceAlpha" type="matrix" values="0 0 0 0 0 0 0 0 0 0 0 0 0 0 0 0 0 0 127 0" result="hardAlpha"/>
<feOffset dx="2" dy="4"/>
<feGaussianBlur stdDeviation="2"/>
<feComposite in2="hardAlpha" operator="out"/>
<feColorMatrix type="matrix" values="0 0 0 0 0 0 0 0 0 0 0 0 0 0 0 0 0 0 0.5 0"/>
<feBlend mode="normal" in2="BackgroundImageFix" result="effect1_dropShadow_46_2636"/>
<feBlend mode="normal" in="SourceGraphic" in2="effect1_dropShadow_46_2636" result="shape"/>
</filter>
</defs>
</svg>
