<svg width="150" height="150" viewBox="0 0 150 150" fill="none" xmlns="http://www.w3.org/2000/svg">
<rect width="150" height="150" rx="50" fill="white"/>
<path d="M117.816 49.1785C121.207 54.8012 123.458 61.0368 124.439 67.5292C125.42 74.0216 125.113 80.6436 123.534 87.0173C121.956 93.3909 119.138 99.3913 115.241 104.676C111.344 109.96 106.444 114.426 100.821 117.816" stroke="url(#paint0_linear_46_2424)" stroke-width="40"/>
<path d="M118.345 50.0757C114.434 43.2741 108.977 37.4884 102.416 33.1864C95.8544 28.8844 88.3727 26.1868 80.5758 25.3119" stroke="url(#paint1_linear_46_2424)" stroke-width="40"/>
<path d="M83.8234 25.7847C75.7299 24.3337 67.4035 24.9011 59.5816 27.4366C51.7598 29.9722 44.684 34.3977 38.981 40.321C33.278 46.2444 29.1239 53.4828 26.8865 61.3951C24.6492 69.3074 24.3977 77.6494 26.1544 85.6821C27.9111 93.7148 31.6217 101.19 36.9575 107.446C42.2934 113.703 49.0898 118.546 56.7447 121.548C64.3996 124.55 72.6767 125.618 80.8429 124.657C89.0092 123.697 96.8124 120.737 103.561 116.04" stroke="url(#paint2_linear_46_2424)" stroke-width="40"/>
<path d="M63.9318 81.1591C63.1515 81.1591 62.4621 81.0208 61.8636 80.7443C61.2689 80.464 60.8049 80.0795 60.4716 79.5909C60.1383 79.0985 59.9735 78.5379 59.9773 77.9091C59.9735 77.4167 60.0701 76.9621 60.267 76.5455C60.464 76.125 60.733 75.7746 61.0739 75.4943C61.4186 75.2102 61.803 75.0303 62.2273 74.9545V74.8864C61.6705 74.7424 61.2273 74.4299 60.8977 73.9489C60.5682 73.464 60.4053 72.9129 60.4091 72.2955C60.4053 71.7045 60.5549 71.1761 60.858 70.7102C61.161 70.2443 61.5777 69.8769 62.108 69.608C62.642 69.339 63.25 69.2045 63.9318 69.2045C64.6061 69.2045 65.2083 69.339 65.7386 69.608C66.2689 69.8769 66.6856 70.2443 66.9886 70.7102C67.2955 71.1761 67.4508 71.7045 67.4545 72.2955C67.4508 72.9129 67.2822 73.464 66.9489 73.9489C66.6193 74.4299 66.1818 74.7424 65.6364 74.8864V74.9545C66.0568 75.0303 66.4356 75.2102 66.7727 75.4943C67.1098 75.7746 67.3788 76.125 67.5795 76.5455C67.7803 76.9621 67.8826 77.4167 67.8864 77.9091C67.8826 78.5379 67.7121 79.0985 67.375 79.5909C67.0417 80.0795 66.5777 80.464 65.983 80.7443C65.392 81.0208 64.7083 81.1591 63.9318 81.1591ZM63.9318 79.9091C64.4583 79.9091 64.9129 79.8239 65.2955 79.6534C65.678 79.483 65.9735 79.2424 66.1818 78.9318C66.3902 78.6212 66.4962 78.2576 66.5 77.8409C66.4962 77.4015 66.3826 77.0133 66.1591 76.6761C65.9356 76.339 65.6307 76.0739 65.2443 75.8807C64.8617 75.6875 64.4242 75.5909 63.9318 75.5909C63.4356 75.5909 62.9924 75.6875 62.6023 75.8807C62.2159 76.0739 61.911 76.339 61.6875 76.6761C61.4678 77.0133 61.3598 77.4015 61.3636 77.8409C61.3598 78.2576 61.4602 78.6212 61.6648 78.9318C61.8731 79.2424 62.1705 79.483 62.5568 79.6534C62.9432 79.8239 63.4015 79.9091 63.9318 79.9091ZM63.9318 74.3864C64.3485 74.3864 64.7178 74.303 65.0398 74.1364C65.3655 73.9697 65.6212 73.7367 65.8068 73.4375C65.9924 73.1383 66.0871 72.7879 66.0909 72.3864C66.0871 71.9924 65.9943 71.6496 65.8125 71.358C65.6307 71.0625 65.3788 70.8352 65.0568 70.6761C64.7348 70.5133 64.3598 70.4318 63.9318 70.4318C63.4962 70.4318 63.1155 70.5133 62.7898 70.6761C62.464 70.8352 62.2121 71.0625 62.0341 71.358C61.8561 71.6496 61.7689 71.9924 61.7727 72.3864C61.7689 72.7879 61.858 73.1383 62.0398 73.4375C62.2254 73.7367 62.4811 73.9697 62.8068 74.1364C63.1326 74.303 63.5076 74.3864 63.9318 74.3864ZM73.7003 81.1591C73.0336 81.1591 72.4332 81.0265 71.8991 80.7614C71.3651 80.4962 70.937 80.1326 70.6151 79.6705C70.2931 79.2083 70.117 78.6818 70.0866 78.0909H71.4503C71.5033 78.6174 71.742 79.053 72.1662 79.3977C72.5942 79.7386 73.1056 79.9091 73.7003 79.9091C74.1776 79.9091 74.6018 79.7973 74.973 79.5739C75.348 79.3504 75.6416 79.0436 75.8537 78.6534C76.0696 78.2595 76.1776 77.8144 76.1776 77.3182C76.1776 76.8106 76.0658 76.358 75.8423 75.9602C75.6226 75.5587 75.3196 75.2424 74.9332 75.0114C74.5469 74.7803 74.1056 74.6629 73.6094 74.6591C73.2533 74.6553 72.8878 74.7102 72.5128 74.8239C72.1378 74.9337 71.8291 75.0758 71.5866 75.25L70.2685 75.0909L70.973 69.3636H77.0185V70.6136H72.1548L71.7457 74.0455H71.8139C72.0526 73.8561 72.3518 73.6989 72.7116 73.5739C73.0715 73.4489 73.4465 73.3864 73.8366 73.3864C74.5488 73.3864 75.1832 73.5568 75.7401 73.8977C76.3007 74.2348 76.7401 74.697 77.0582 75.2841C77.3802 75.8712 77.5412 76.5417 77.5412 77.2955C77.5412 78.0379 77.3745 78.7008 77.0412 79.2841C76.7116 79.8636 76.2571 80.322 75.6776 80.6591C75.098 80.9924 74.4389 81.1591 73.7003 81.1591ZM85.7301 78.8182V78.2045C85.7301 77.7803 85.8172 77.392 85.9915 77.0398C86.1695 76.6837 86.4271 76.3996 86.7642 76.1875C87.1051 75.9716 87.518 75.8636 88.0028 75.8636C88.4953 75.8636 88.9081 75.9716 89.2415 76.1875C89.5748 76.3996 89.8267 76.6837 89.9972 77.0398C90.1676 77.392 90.2528 77.7803 90.2528 78.2045V78.8182C90.2528 79.2424 90.1657 79.6326 89.9915 79.9886C89.821 80.3409 89.5672 80.625 89.2301 80.8409C88.8968 81.053 88.4877 81.1591 88.0028 81.1591C87.5104 81.1591 87.0956 81.053 86.7585 80.8409C86.4214 80.625 86.1657 80.3409 85.9915 79.9886C85.8172 79.6326 85.7301 79.2424 85.7301 78.8182ZM86.8892 78.2045V78.8182C86.8892 79.1705 86.9725 79.4867 87.1392 79.767C87.3059 80.0436 87.5938 80.1818 88.0028 80.1818C88.4006 80.1818 88.6809 80.0436 88.8438 79.767C89.0104 79.4867 89.0938 79.1705 89.0938 78.8182V78.2045C89.0938 77.8523 89.0142 77.5379 88.8551 77.2614C88.696 76.9811 88.4119 76.8409 88.0028 76.8409C87.6051 76.8409 87.3191 76.9811 87.1449 77.2614C86.9744 77.5379 86.8892 77.8523 86.8892 78.2045ZM79.9347 72.1591V71.5455C79.9347 71.1212 80.0218 70.733 80.196 70.3807C80.3741 70.0246 80.6316 69.7405 80.9688 69.5284C81.3097 69.3125 81.7225 69.2045 82.2074 69.2045C82.6998 69.2045 83.1127 69.3125 83.446 69.5284C83.7794 69.7405 84.0313 70.0246 84.2017 70.3807C84.3722 70.733 84.4574 71.1212 84.4574 71.5455V72.1591C84.4574 72.5833 84.3703 72.9735 84.196 73.3295C84.0256 73.6818 83.7718 73.9659 83.4347 74.1818C83.1013 74.3939 82.6922 74.5 82.2074 74.5C81.715 74.5 81.3002 74.3939 80.9631 74.1818C80.6259 73.9659 80.3703 73.6818 80.196 73.3295C80.0218 72.9735 79.9347 72.5833 79.9347 72.1591ZM81.0938 71.5455V72.1591C81.0938 72.5114 81.1771 72.8277 81.3438 73.108C81.5104 73.3845 81.7983 73.5227 82.2074 73.5227C82.6051 73.5227 82.8854 73.3845 83.0483 73.108C83.215 72.8277 83.2983 72.5114 83.2983 72.1591V71.5455C83.2983 71.1932 83.2188 70.8788 83.0597 70.6023C82.9006 70.322 82.6165 70.1818 82.2074 70.1818C81.8097 70.1818 81.5237 70.322 81.3494 70.6023C81.179 70.8788 81.0938 71.1932 81.0938 71.5455ZM80.3665 81L88.3665 69.3636H89.6619L81.6619 81H80.3665Z" fill="black"/>
<defs>
<linearGradient id="paint0_linear_46_2424" x1="75" y1="25" x2="53.6667" y2="118.333" gradientUnits="userSpaceOnUse">
<stop offset="0.645756" stop-color="#F4A60F"/>
<stop offset="1" stop-color="#F9B405" stop-opacity="0.6372"/>
</linearGradient>
<linearGradient id="paint1_linear_46_2424" x1="75" y1="25" x2="75" y2="125" gradientUnits="userSpaceOnUse">
<stop stop-color="#E774C7"/>
<stop offset="1" stop-color="#E84794" stop-opacity="0.6372"/>
</linearGradient>
<linearGradient id="paint2_linear_46_2424" x1="75" y1="25" x2="75" y2="125" gradientUnits="userSpaceOnUse">
<stop stop-color="#7774E7"/>
<stop offset="1" stop-color="#4B47E8" stop-opacity="0.6372"/>
</linearGradient>
</defs>
</svg>
