<svg width="140" height="21" viewBox="0 0 140 21" fill="none" xmlns="http://www.w3.org/2000/svg">
<path d="M5.336 20.408C8.984 20.408 11.408 18.536 11.408 15.536C11.408 13.088 10.28 11.744 6.656 10.232L5.552 9.776C3.68 9.008 2.528 8 2.528 6.2C2.528 4.088 4.16 3.008 6.392 3.008C7.784 3.008 8.696 3.368 9.92 4.376L9.872 3.584L8.744 3.056L9.464 6.848H10.496L10.616 3.44C9.416 2.624 8.12 2.144 6.272 2.144C3.176 2.144 0.68 3.704 0.68 6.704C0.68 9.152 2.192 10.664 5.048 11.864L6.056 12.296C8.672 13.376 9.512 14.312 9.512 16.04C9.512 18.344 7.784 19.544 5.192 19.544C3.488 19.544 2.456 19.208 0.92 18.08L1.04 18.848L2.144 19.376L1.4 15.416H0.392L0.272 19.016C1.424 19.784 3.344 20.408 5.336 20.408ZM25.8858 20.36C29.0538 20.36 31.8858 18.152 31.8858 13.832C31.8858 9.512 28.9818 7.28 25.8858 7.28C22.7898 7.28 19.9098 9.512 19.9098 13.832C19.9098 18.152 22.6938 20.36 25.8858 20.36ZM25.8858 19.616C23.5098 19.616 22.0458 17.6 22.0458 13.856C22.0458 10.112 23.5098 8.048 25.8858 8.048C28.2618 8.048 29.7258 10.112 29.7258 13.856C29.7258 17.6 28.2618 19.616 25.8858 19.616ZM40.0113 20H46.3953V19.352L43.5873 19.088H42.8193L40.0113 19.352V20ZM42.1713 20H44.3073C44.2353 18.512 44.2113 16.232 44.2113 14.528V4.64L44.3073 0.895998L43.9473 0.679998L40.1313 1.4V2.048L42.2433 2.168V14.528C42.2433 16.232 42.2193 18.512 42.1713 20ZM59.5916 20.36C61.5836 20.36 63.1916 19.208 64.4156 17.528H65.0636L64.4876 16.616C63.3596 18.128 61.9436 19.016 60.4556 19.016C58.8956 19.016 58.0316 18.128 58.0316 15.56V10.88L58.1516 7.736L57.8876 7.448L54.1436 7.832V8.456L56.6396 8.816L56.1116 8.408L56.0636 15.56C56.0396 19.112 57.3116 20.36 59.5916 20.36ZM64.2956 20.24L67.9916 20.024V19.352L66.1676 19.16V10.88L66.2636 7.736L66.0236 7.448L62.3036 7.856V8.48L64.2476 8.696L64.1996 17.24V17.264L64.2956 20.24ZM78.8679 8.528H83.3079V7.64H78.8679V8.528ZM80.8119 20.36C82.0839 20.36 83.0199 19.928 83.6679 19.136L83.3319 18.704C82.6839 19.112 82.2279 19.304 81.5079 19.304C80.4519 19.304 79.8759 18.68 79.8759 17.192V8L79.9719 3.872H78.6279L77.9319 7.904L78.3879 7.568L75.5079 7.784V8.528H77.8839V15.032C77.8839 15.92 77.8599 16.424 77.8599 17.192C77.8599 19.328 78.7959 20.36 80.8119 20.36ZM91.157 20H97.085V19.352L94.541 19.088H93.797L91.157 19.352V20ZM93.149 20H95.261C95.213 18.848 95.189 16.16 95.189 14.528V10.88L95.237 7.544L94.949 7.328L91.013 8.288V8.912L93.149 9.008C93.197 10.208 93.245 11.456 93.245 13.088V14.528C93.245 16.16 93.197 18.848 93.149 20ZM94.013 4.28C94.781 4.28 95.429 3.752 95.429 2.936C95.429 2.168 94.781 1.592 94.013 1.592C93.245 1.592 92.645 2.168 92.645 2.936C92.645 3.752 93.245 4.28 94.013 4.28ZM111.362 20.36C114.53 20.36 117.362 18.152 117.362 13.832C117.362 9.512 114.458 7.28 111.362 7.28C108.266 7.28 105.386 9.512 105.386 13.832C105.386 18.152 108.17 20.36 111.362 20.36ZM111.362 19.616C108.986 19.616 107.522 17.6 107.522 13.856C107.522 10.112 108.986 8.048 111.362 8.048C113.738 8.048 115.202 10.112 115.202 13.856C115.202 17.6 113.738 19.616 111.362 19.616ZM125.656 20H131.536V19.352L129.04 19.088H128.272L125.656 19.352V20ZM127.624 20H129.76C129.712 18.848 129.688 16.16 129.688 14.528V10.328L129.52 7.544L129.208 7.328L125.512 8.312V8.912L127.624 9.032C127.696 10.232 127.72 11.432 127.72 13.064V14.528C127.72 16.16 127.696 18.848 127.624 20ZM133.816 20H139.696V19.352L137.2 19.088H136.408L133.816 19.352V20ZM135.784 20H137.896C137.848 18.848 137.8 16.208 137.8 14.528V11.792C137.8 8.552 136.552 7.28 134.464 7.28C132.784 7.28 131.056 8.12 129.304 10.28H129.064L129.28 11.072C131.008 9.152 132.568 8.576 133.648 8.576C135.04 8.576 135.856 9.392 135.856 11.744V14.528C135.856 16.208 135.832 18.848 135.784 20Z" fill="black" fill-opacity="0.25"/>
</svg>
