<svg width="90" height="90" viewBox="0 0 108 108" fill="none" xmlns="http://www.w3.org/2000/svg">
<g filter="url(#filter0_d_46_2609)">
<rect x="2" width="100" height="100" rx="30" fill="#F119B5"/>
<mask id="mask0_46_2609" style="mask-type:alpha" maskUnits="userSpaceOnUse" x="32" y="28" width="40" height="44">
<path d="M66.4333 45.8334V54.1667M55.6083 64.5834L59.2166 62.5001L62.825 60.4167M48.3916 64.5834L44.7823 62.5001L41.1739 60.4167M37.5667 45.8334V54.1667M41.1739 39.5834L44.7833 37.5001L48.3916 35.4167M55.6083 35.4167L59.2166 37.5001L62.825 39.5834" stroke="white" stroke-width="0.833333" stroke-linecap="round" stroke-linejoin="round"/>
<path d="M52 70.8334C53.1051 70.8334 54.1649 70.3944 54.9463 69.613C55.7277 68.8316 56.1667 67.7718 56.1667 66.6667C56.1667 65.5617 55.7277 64.5019 54.9463 63.7205C54.1649 62.9391 53.1051 62.5001 52 62.5001C50.8949 62.5001 49.8351 62.9391 49.0537 63.7205C48.2723 64.5019 47.8333 65.5617 47.8333 66.6667C47.8333 67.7718 48.2723 68.8316 49.0537 69.613C49.8351 70.3944 50.8949 70.8334 52 70.8334ZM52 37.5001C53.1051 37.5001 54.1649 37.0611 54.9463 36.2797C55.7277 35.4983 56.1667 34.4385 56.1667 33.3334C56.1667 32.2283 55.7277 31.1685 54.9463 30.3871C54.1649 29.6057 53.1051 29.1667 52 29.1667C50.8949 29.1667 49.8351 29.6057 49.0537 30.3871C48.2723 31.1685 47.8333 32.2283 47.8333 33.3334C47.8333 34.4385 48.2723 35.4983 49.0537 36.2797C49.8351 37.0611 50.8949 37.5001 52 37.5001ZM52 54.1667C53.1051 54.1667 54.1649 53.7278 54.9463 52.9464C55.7277 52.165 56.1667 51.1052 56.1667 50.0001C56.1667 48.895 55.7277 47.8352 54.9463 47.0538C54.1649 46.2724 53.1051 45.8334 52 45.8334C50.8949 45.8334 49.8351 46.2724 49.0537 47.0538C48.2723 47.8352 47.8333 48.895 47.8333 50.0001C47.8333 51.1052 48.2723 52.165 49.0537 52.9464C49.8351 53.7278 50.8949 54.1667 52 54.1667ZM66.5833 45.8334C67.6884 45.8334 68.7482 45.3944 69.5296 44.613C70.311 43.8316 70.75 42.7718 70.75 41.6667C70.75 40.5617 70.311 39.5019 69.5296 38.7205C68.7482 37.9391 67.6884 37.5001 66.5833 37.5001C65.4783 37.5001 64.4185 37.9391 63.6371 38.7205C62.8557 39.5019 62.4167 40.5617 62.4167 41.6667C62.4167 42.7718 62.8557 43.8316 63.6371 44.613C64.4185 45.3944 65.4783 45.8334 66.5833 45.8334ZM66.5833 62.5001C67.6884 62.5001 68.7482 62.0611 69.5296 61.2797C70.311 60.4983 70.75 59.4385 70.75 58.3334C70.75 57.2283 70.311 56.1685 69.5296 55.3871C68.7482 54.6057 67.6884 54.1667 66.5833 54.1667C65.4783 54.1667 64.4185 54.6057 63.6371 55.3871C62.8557 56.1685 62.4167 57.2283 62.4167 58.3334C62.4167 59.4385 62.8557 60.4983 63.6371 61.2797C64.4185 62.0611 65.4783 62.5001 66.5833 62.5001ZM37.4167 45.8334C38.5217 45.8334 39.5815 45.3944 40.3629 44.613C41.1443 43.8316 41.5833 42.7718 41.5833 41.6667C41.5833 40.5617 41.1443 39.5019 40.3629 38.7205C39.5815 37.9391 38.5217 37.5001 37.4167 37.5001C36.3116 37.5001 35.2518 37.9391 34.4704 38.7205C33.689 39.5019 33.25 40.5617 33.25 41.6667C33.25 42.7718 33.689 43.8316 34.4704 44.613C35.2518 45.3944 36.3116 45.8334 37.4167 45.8334ZM37.4167 62.5001C38.5217 62.5001 39.5815 62.0611 40.3629 61.2797C41.1443 60.4983 41.5833 59.4385 41.5833 58.3334C41.5833 57.2283 41.1443 56.1685 40.3629 55.3871C39.5815 54.6057 38.5217 54.1667 37.4167 54.1667C36.3116 54.1667 35.2518 54.6057 34.4704 55.3871C33.689 56.1685 33.25 57.2283 33.25 58.3334C33.25 59.4385 33.689 60.4983 34.4704 61.2797C35.2518 62.0611 36.3116 62.5001 37.4167 62.5001Z" fill="#555555" stroke="white" stroke-width="0.833333" stroke-linecap="round" stroke-linejoin="round"/>
</mask>
<g mask="url(#mask0_46_2609)">
<path d="M27 25H77V75H27V25Z" fill="white"/>
</g>
</g>
<defs>
<filter id="filter0_d_46_2609" x="0" y="0" width="108" height="108" filterUnits="userSpaceOnUse" color-interpolation-filters="sRGB">
<feFlood flood-opacity="0" result="BackgroundImageFix"/>
<feColorMatrix in="SourceAlpha" type="matrix" values="0 0 0 0 0 0 0 0 0 0 0 0 0 0 0 0 0 0 127 0" result="hardAlpha"/>
<feOffset dx="2" dy="4"/>
<feGaussianBlur stdDeviation="2"/>
<feComposite in2="hardAlpha" operator="out"/>
<feColorMatrix type="matrix" values="0 0 0 0 0 0 0 0 0 0 0 0 0 0 0 0 0 0 0.5 0"/>
<feBlend mode="normal" in2="BackgroundImageFix" result="effect1_dropShadow_46_2609"/>
<feBlend mode="normal" in="SourceGraphic" in2="effect1_dropShadow_46_2609" result="shape"/>
</filter>
</defs>
</svg>
