<svg width="90" height="90" viewBox="0 0 108 108" fill="none" xmlns="http://www.w3.org/2000/svg">
<g filter="url(#filter0_d_46_2616)">
<rect x="2" width="100" height="100" rx="30" fill="#7774E7"/>
<path d="M29 62.3333V56.5C29 55.3194 29.3042 54.234 29.9125 53.2437C30.5194 52.2549 31.3264 51.5 32.3333 50.9792C34.4861 49.9028 36.6736 49.0951 38.8958 48.5562C41.1181 48.0187 43.375 47.75 45.6667 47.75C47.2292 47.75 48.7743 47.8715 50.3021 48.1146C51.8299 48.3576 53.3576 48.7396 54.8854 49.2604C53.0104 50.8924 51.6389 52.8542 50.7708 55.1458C49.9028 57.4375 49.6424 59.8333 49.9896 62.3333H29ZM45.6667 45.6667C43.375 45.6667 41.4132 44.8507 39.7812 43.2187C38.1493 41.5868 37.3333 39.625 37.3333 37.3333C37.3333 35.0417 38.1493 33.0799 39.7812 31.4479C41.4132 29.816 43.375 29 45.6667 29C47.9583 29 49.9201 29.816 51.5521 31.4479C53.184 33.0799 54 35.0417 54 37.3333C54 39.625 53.184 41.5868 51.5521 43.2187C49.9201 44.8507 47.9583 45.6667 45.6667 45.6667ZM66.5 37.3333C66.5 39.625 65.684 41.5868 64.0521 43.2187C62.4201 44.8507 60.4583 45.6667 58.1667 45.6667C57.7847 45.6667 57.2986 45.6236 56.7083 45.5375C56.1181 45.45 55.6319 45.3542 55.25 45.25C56.1875 44.1389 56.9076 42.9062 57.4104 41.5521C57.9146 40.1979 58.1667 38.7917 58.1667 37.3333C58.1667 35.875 57.9146 34.4688 57.4104 33.1146C56.9076 31.7604 56.1875 30.5278 55.25 29.4167C55.7361 29.2431 56.2222 29.1299 56.7083 29.0771C57.1944 29.0257 57.6806 29 58.1667 29C60.4583 29 62.4201 29.816 64.0521 31.4479C65.684 33.0799 66.5 35.0417 66.5 37.3333ZM64.4167 70.6667C61.5347 70.6667 59.0785 69.6514 57.0479 67.6208C55.016 65.5889 54 63.1319 54 60.25C54 57.3333 55.016 54.8681 57.0479 52.8542C59.0785 50.8403 61.5347 49.8333 64.4167 49.8333C67.3333 49.8333 69.7986 50.8403 71.8125 52.8542C73.8264 54.8681 74.8333 57.3333 74.8333 60.25C74.8333 63.1319 73.8264 65.5889 71.8125 67.6208C69.7986 69.6514 67.3333 70.6667 64.4167 70.6667ZM62.9583 64.9375L70.3021 57.5417L68.8437 56.0833L62.9583 61.9688L59.9896 59L58.5312 60.5104L62.9583 64.9375Z" fill="white"/>
</g>
<defs>
<filter id="filter0_d_46_2616" x="0" y="0" width="108" height="108" filterUnits="userSpaceOnUse" color-interpolation-filters="sRGB">
<feFlood flood-opacity="0" result="BackgroundImageFix"/>
<feColorMatrix in="SourceAlpha" type="matrix" values="0 0 0 0 0 0 0 0 0 0 0 0 0 0 0 0 0 0 127 0" result="hardAlpha"/>
<feOffset dx="2" dy="4"/>
<feGaussianBlur stdDeviation="2"/>
<feComposite in2="hardAlpha" operator="out"/>
<feColorMatrix type="matrix" values="0 0 0 0 0 0 0 0 0 0 0 0 0 0 0 0 0 0 0.5 0"/>
<feBlend mode="normal" in2="BackgroundImageFix" result="effect1_dropShadow_46_2616"/>
<feBlend mode="normal" in="SourceGraphic" in2="effect1_dropShadow_46_2616" result="shape"/>
</filter>
</defs>
</svg>
